<?xml version="1.0" standalone="no"?>
<!DOCTYPE svg PUBLIC "-//W3C//DTD SVG 20010904//EN"
 "http://www.w3.org/TR/2001/REC-SVG-20010904/DTD/svg10.dtd">
<svg version="1.0" xmlns="http://www.w3.org/2000/svg"
 width="2000.000000pt" height="2000.000000pt" viewBox="0 0 2000.000000 2000.000000"
 preserveAspectRatio="xMidYMid meet">

<g transform="translate(0.000000,2000.000000) scale(0.100000,-0.100000)"
fill="#000000" stroke="none">
<path d="M8550 17561 c-12 -9 -12 -11 3 -17 25 -9 21 -24 -8 -24 -14 0 -28 -7
-31 -15 -4 -8 -17 -15 -30 -15 -13 0 -32 -4 -42 -9 -9 -5 -25 -12 -35 -15 -11
-3 -21 -15 -24 -26 -6 -24 -33 -27 -33 -4 0 26 -25 9 -28 -19 -2 -18 2 -29 12
-33 9 -3 16 -11 16 -18 0 -21 42 -91 75 -126 19 -19 37 -47 40 -62 6 -24 4
-28 -13 -28 -12 0 -23 9 -27 20 -7 23 -16 25 -33 8 -9 -9 -21 -2 -51 31 -44
47 -56 47 -77 -5 -12 -29 -17 -33 -33 -24 -14 7 -22 6 -31 -5 -12 -14 -47 -26
-112 -40 -14 -3 -41 -17 -59 -32 -18 -16 -34 -27 -36 -25 -12 9 -51 -18 -95
-65 -57 -61 -68 -76 -68 -91 0 -9 -23 -39 -49 -66 -27 -27 -52 -60 -56 -73 -5
-22 -11 -25 -40 -21 -30 3 -36 0 -54 -33 -12 -20 -21 -44 -21 -53 0 -10 -9
-16 -23 -16 -13 0 -29 -6 -36 -12 -11 -11 -12 -9 -8 7 14 54 16 75 11 89 -8
20 -21 20 -40 1 -18 -18 -42 -10 -46 17 -3 18 -11 13 -61 -33 -32 -31 -57 -63
-57 -74 0 -24 -32 -62 -82 -99 -21 -15 -38 -32 -38 -38 0 -6 -11 -25 -24 -42
-13 -17 -26 -41 -30 -53 -4 -12 -20 -32 -37 -43 -16 -12 -29 -30 -29 -41 0
-11 -4 -27 -9 -37 -5 -9 -17 -39 -27 -67 -9 -27 -21 -56 -27 -62 -5 -7 -10
-31 -11 -53 -2 -26 -9 -45 -22 -54 -18 -13 -19 -27 -17 -190 1 -112 8 -203 18
-250 8 -41 15 -88 15 -103 0 -25 17 -93 80 -323 37 -133 79 -263 106 -325 7
-16 25 -64 40 -105 15 -41 38 -103 51 -138 43 -113 93 -275 93 -301 0 -14 -9
-56 -19 -93 -10 -37 -16 -70 -13 -73 3 -2 -6 -14 -20 -24 -18 -14 -27 -34 -31
-66 -4 -26 -13 -52 -21 -60 -48 -48 -13 -606 42 -665 11 -12 26 -35 32 -51 7
-16 18 -29 24 -29 13 -1 146 -125 146 -137 0 -5 15 -16 33 -26 26 -14 37 -30
50 -70 65 -205 101 -309 122 -355 14 -29 25 -56 25 -61 0 -5 33 -74 73 -153
69 -137 94 -192 115 -249 6 -14 23 -40 38 -58 27 -32 29 -41 37 -175 5 -77 14
-144 20 -147 5 -4 7 -12 3 -18 -4 -6 10 -26 31 -45 147 -132 253 -216 351
-279 62 -40 157 -104 211 -144 108 -80 151 -102 151 -78 0 9 14 17 40 21 22 4
40 10 40 15 0 5 6 9 14 9 20 0 69 80 76 124 5 38 10 44 60 63 34 14 92 41 110
52 33 20 120 51 144 51 15 0 34 4 44 9 9 5 51 19 92 32 41 12 85 29 98 37 12
8 41 16 64 18 47 4 108 42 141 88 12 17 22 34 22 38 0 6 60 79 98 119 9 11 24
19 32 19 8 0 15 7 15 15 0 25 46 100 69 110 14 7 19 15 15 29 -4 12 -2 16 5
12 7 -4 11 1 11 13 0 11 6 24 13 28 14 9 51 73 42 73 -9 0 32 75 49 89 9 8 16
22 16 32 0 10 5 21 10 24 6 3 10 15 10 26 0 10 5 19 10 19 6 0 10 7 10 15 0 8
8 41 19 72 10 32 23 78 30 103 6 25 25 92 41 150 38 134 63 253 64 307 0 23 4
39 7 37 4 -2 13 12 19 31 10 31 15 34 38 30 15 -3 22 -3 17 0 -7 3 -8 28 -4
68 3 34 3 69 -1 77 -4 8 -10 34 -13 57 -4 36 -3 41 13 38 13 -2 22 6 31 27 13
31 61 68 90 68 8 0 26 11 39 25 20 21 25 39 28 93 4 86 -9 109 -79 147 -31 17
-63 36 -72 43 -13 11 -16 10 -20 -10 -3 -13 -3 9 -1 48 2 40 8 84 14 98 5 15
10 39 10 54 0 29 29 117 30 92 0 -9 3 -11 8 -5 4 6 24 23 44 38 l37 28 21 -21
c22 -22 26 -11 9 23 -18 33 -14 275 6 345 15 53 56 144 142 314 18 37 40 84
47 105 8 21 36 85 64 143 93 194 115 278 112 430 -1 86 -8 120 -22 120 -7 0
-6 5 1 13 6 8 7 18 3 23 -10 11 -28 90 -37 157 -3 26 -10 47 -14 47 -4 0 -16
7 -27 16 -18 15 -18 15 3 5 12 -6 23 -11 26 -11 2 0 3 37 2 82 -1 71 -3 82
-21 90 -18 8 -20 17 -16 62 3 34 0 56 -7 61 -9 5 -9 10 0 21 8 9 8 18 2 27 -6
6 -16 37 -23 67 -7 30 -15 60 -19 65 -3 6 -7 19 -8 30 -2 11 -8 22 -13 23 -6
2 -10 17 -10 33 0 36 -52 123 -58 96 -6 -27 -21 -10 -16 19 3 19 0 27 -13 30
-10 3 -27 18 -38 35 -11 16 -32 35 -47 42 -16 6 -28 17 -28 23 0 17 -52 71
-75 78 -24 7 -68 96 -60 118 4 9 -1 22 -10 29 -8 8 -41 40 -72 72 -34 34 -65
57 -78 57 -12 0 -38 18 -61 43 -22 23 -55 56 -74 72 -39 34 -130 90 -130 79 0
-3 -7 -1 -15 6 -8 7 -15 9 -15 4 0 -5 -9 5 -19 22 -24 40 -37 48 -45 29 -3 -8
-1 -17 4 -20 15 -9 12 -25 -5 -25 -8 0 -15 5 -15 11 0 17 -32 38 -58 39 -12 0
-41 12 -65 27 -68 44 -110 64 -141 68 -16 3 -34 9 -40 15 -5 5 -17 10 -26 10
-9 0 -39 12 -66 26 -64 33 -183 38 -233 8 -17 -10 -31 -23 -31 -28 0 -5 -11 4
-25 20 -14 16 -25 32 -25 35 0 4 -24 6 -52 5 -41 -1 -53 2 -53 14 0 12 15 15
75 15 41 1 80 -2 85 -5 6 -3 24 -6 40 -6 17 -1 41 -5 55 -9 24 -7 24 -7 7 11
-16 17 -37 19 -245 21 -125 1 -258 7 -297 13 -38 6 -86 13 -105 15 -19 2 -55
7 -80 10 -25 3 -52 1 -60 -4z m140 -30 c0 -12 -36 -20 -62 -13 -21 5 -21 6 -2
13 27 11 64 11 64 0z m30 -149 c0 -7 -69 -32 -90 -32 -14 0 -90 -34 -90 -40 1
-23 24 -34 72 -35 51 -1 124 -30 146 -58 10 -13 26 -87 18 -87 -17 0 -36 15
-36 29 0 32 -30 61 -63 61 -18 0 -41 6 -52 14 -11 7 -49 24 -85 36 -36 13 -69
27 -75 32 -13 12 15 30 38 24 10 -2 30 7 45 21 15 14 36 29 47 34 25 10 125
11 125 1z m308 -4 c15 -15 16 -48 0 -48 -16 0 -48 31 -48 47 0 16 32 17 48 1z
m-598 -49 c0 -5 -7 -9 -15 -9 -9 0 -15 9 -15 21 0 18 2 19 15 9 8 -7 15 -16
15 -21z m850 -223 c8 -36 -2 -50 -14 -20 -8 20 -8 69 0 61 3 -3 9 -22 14 -41z
m-762 -1 c14 -31 15 -45 3 -45 -7 0 -31 51 -31 66 0 14 19 -1 28 -21z m1078
-20 c6 -24 0 -44 -10 -34 -11 11 -17 59 -7 59 6 0 13 -11 17 -25z m-2204 -611
c-1 -26 -5 -51 -10 -56 -4 -4 -8 9 -7 30 0 20 -3 53 -8 72 -7 32 -6 34 9 18
11 -11 16 -32 16 -64z m3288 16 c-20 -13 -33 -13 -25 0 3 6 14 10 23 10 15 0
15 -2 2 -10z m180 -460 c0 -5 -4 -10 -10 -10 -5 0 -10 5 -10 10 0 6 5 10 10
10 6 0 10 -4 10 -10z m-1591 -242 c5 -15 4 -26 -3 -30 -10 -7 5 -13 27 -9 10
1 9 -13 -2 -24 -18 -20 -22 -52 -7 -52 9 0 13 3 11 7 -2 3 0 12 4 19 5 8 10
-3 14 -30 3 -23 22 -73 41 -110 20 -37 33 -75 30 -83 -3 -8 -20 -17 -37 -19
-18 -2 7 -5 55 -5 52 -1 89 2 93 9 4 6 13 8 21 5 8 -3 14 -1 14 5 0 12 25 39
37 39 16 0 44 62 34 74 -6 7 -6 17 -1 26 6 8 10 25 10 38 0 12 5 22 10 22 6 0
10 -10 11 -22 1 -19 3 -18 9 7 5 17 12 50 17 75 4 25 13 43 18 40 6 -3 9 -10
9 -16 -1 -7 7 -9 20 -6 19 5 19 4 7 -11 -16 -20 -1 -23 30 -7 15 9 19 7 19 -7
1 -17 2 -16 15 1 13 17 15 17 15 4 0 -9 10 -20 22 -24 41 -13 106 -69 135
-116 15 -25 31 -41 34 -36 4 6 10 2 13 -10 4 -11 13 -22 20 -25 21 -8 89 -153
82 -175 -5 -13 -1 -22 10 -26 13 -5 14 -9 4 -21 -10 -13 -9 -19 5 -35 17 -19
17 -20 0 -20 -16 0 -17 -2 -3 -17 9 -10 13 -23 11 -30 -2 -7 1 -21 7 -32 7
-14 7 -21 0 -21 -9 0 6 -37 21 -50 3 -3 9 -14 12 -24 6 -16 5 -17 -8 -6 -8 7
-15 11 -16 9 -7 -33 -3 -79 8 -97 13 -22 13 -22 -6 -10 -11 7 -22 19 -25 28
-2 9 -4 6 -5 -7 0 -12 4 -25 9 -28 6 -3 10 -11 10 -16 0 -6 -4 -7 -10 -4 -5 3
-10 4 -10 1 0 -8 29 -84 50 -131 51 -114 122 -428 134 -587 3 -35 10 -114 16
-176 6 -62 10 -136 9 -165 -1 -29 1 -70 5 -92 4 -25 3 -33 -2 -21 -11 26 -17
14 -32 -59 -6 -33 -18 -81 -26 -107 -9 -26 -13 -52 -9 -57 3 -6 -1 -23 -9 -39
-8 -16 -12 -32 -9 -35 3 -4 0 -14 -7 -22 -7 -9 -13 -38 -13 -65 -1 -27 -4 -47
-9 -44 -10 6 -6 -26 6 -45 6 -10 5 -12 -2 -7 -8 5 -12 -2 -13 -21 l-1 -28 -8
30 c-4 17 -8 22 -9 13 0 -10 -5 -18 -10 -18 -13 0 -10 -41 3 -59 9 -12 7 -13
-8 -8 -16 6 -18 3 -14 -22 3 -18 0 -29 -6 -28 -6 1 -10 -4 -8 -10 1 -7 -2 -13
-8 -13 -5 0 -10 -7 -10 -15 0 -8 5 -15 10 -15 6 0 10 -4 10 -10 0 -5 -4 -10
-9 -10 -17 0 -23 39 -10 62 18 32 21 54 6 39 -7 -7 -12 -15 -13 -19 0 -4 -4
-19 -8 -34 -9 -30 -36 -38 -36 -11 0 14 -2 15 -12 4 -11 -10 -10 -14 5 -22 9
-6 17 -15 17 -22 0 -8 -3 -8 -8 -2 -4 6 -15 11 -26 13 -14 3 -17 -1 -13 -12 4
-9 2 -16 -3 -16 -6 0 -10 -5 -10 -11 0 -5 4 -8 8 -5 4 2 8 -4 8 -15 0 -23 -4
-24 -30 -1 -20 16 -20 16 -7 -1 8 -10 11 -29 8 -46 -4 -19 -2 -32 6 -35 7 -4
-1 -4 -18 0 -24 4 -28 3 -17 -7 17 -18 15 -34 -3 -19 -12 10 -15 9 -15 -6 -1
-18 -1 -18 -11 -1 -8 13 -6 21 6 33 8 9 12 20 9 26 -4 6 -10 5 -15 -3 -5 -8
-9 -10 -9 -6 0 5 -8 1 -17 -9 -13 -13 -14 -19 -5 -22 6 -2 12 -11 12 -20 0
-10 -3 -13 -8 -7 -15 21 -32 15 -30 -10 1 -14 5 -25 9 -25 3 0 6 -7 6 -15 0
-8 -4 -15 -8 -15 -4 0 -3 -19 2 -42 6 -23 8 -47 5 -55 -3 -7 -1 -13 3 -13 10
0 8 -41 -3 -58 -4 -7 -13 -12 -21 -12 -8 0 -17 -5 -21 -12 -5 -8 0 -9 14 -6
14 4 22 1 22 -6 0 -7 -14 -11 -35 -11 -28 1 -35 -2 -33 -14 2 -10 12 -15 28
-13 22 2 23 1 7 -8 -9 -6 -21 -9 -26 -5 -5 3 -13 0 -16 -6 -4 -5 -13 -8 -21
-5 -8 3 -13 0 -11 -7 1 -7 -4 -11 -10 -10 -7 2 -13 -6 -13 -18 0 -19 -1 -19
-16 -4 -26 26 -30 7 -4 -20 l23 -24 -32 9 c-17 5 -32 7 -32 4 -1 -2 -2 -8 -3
-14 0 -5 -4 -10 -8 -10 -5 0 -17 0 -27 0 -11 0 -23 9 -26 20 -3 11 -14 20 -23
20 -13 0 -14 -2 -4 -8 7 -5 10 -16 7 -24 -4 -9 -2 -19 4 -23 6 -3 11 -11 11
-16 0 -6 -7 -3 -16 6 -9 8 -14 21 -11 29 3 7 -1 13 -9 13 -8 0 -12 -7 -9 -16
2 -9 1 -22 -4 -30 -7 -11 -10 -10 -18 4 -9 15 -11 16 -16 1 -4 -9 -2 -16 2
-16 5 0 12 -7 15 -16 4 -12 1 -14 -14 -9 -16 5 -19 3 -13 -11 5 -13 3 -15 -7
-9 -8 5 -11 4 -7 -3 14 -21 -4 -42 -31 -35 -21 5 -24 3 -19 -11 6 -14 3 -15
-13 -6 -11 6 -20 8 -20 5 0 -4 -7 1 -16 10 -9 9 -19 14 -22 11 -9 -10 20 -36
42 -37 11 -1 3 -5 -19 -8 -22 -3 -43 -2 -46 3 -4 4 -11 0 -17 -10 -9 -16 -14
-17 -31 -6 -18 10 -21 10 -21 -3 0 -8 -4 -15 -10 -15 -5 0 -10 3 -10 8 0 4
-14 7 -31 8 -21 1 -27 -2 -20 -9 16 -16 13 -34 -4 -34 -8 0 -12 3 -10 6 2 4
-5 18 -16 31 -11 14 -17 18 -13 9 3 -10 1 -20 -5 -24 -6 -3 -11 -15 -11 -25 0
-17 -3 -18 -25 -8 -28 13 -47 2 -25 -13 13 -9 13 -10 0 -6 -8 2 -26 0 -39 -5
-21 -8 -23 -6 -17 17 7 26 -3 32 -21 14 -9 -9 -13 -2 -18 25 -6 30 -10 34 -21
25 -11 -9 -14 -7 -14 12 0 21 -2 20 -25 -10 l-24 -34 -13 28 c-11 24 -13 25
-19 8 -7 -16 -8 -16 -8 3 -1 12 6 25 15 28 14 5 12 10 -12 31 -15 13 -31 22
-36 19 -4 -3 -8 0 -8 5 0 14 6 14 31 1 23 -13 46 5 46 35 0 11 1 36 2 55 3 33
3 33 11 10 8 -25 8 -25 10 5 1 28 2 29 10 8 5 -13 12 -23 14 -23 3 0 3 6 0 13
-2 7 0 24 6 38 10 23 10 23 5 -4 -4 -17 -2 -26 4 -23 5 4 11 1 14 -6 2 -7 2
-1 0 13 -2 16 3 33 12 43 9 9 14 20 10 25 -3 5 -1 12 5 16 5 3 10 -1 10 -10 0
-9 4 -13 10 -10 5 3 7 20 4 38 -4 30 -4 31 6 7 6 -14 9 -33 6 -42 -2 -10 0
-18 5 -18 8 0 12 11 11 30 0 3 6 11 14 18 12 11 14 7 14 -24 0 -21 3 -34 7
-30 4 4 6 24 5 44 -2 26 0 33 7 23 5 -8 7 -21 4 -30 -2 -9 2 -5 11 9 17 29 8
38 -42 43 -17 2 -41 11 -55 20 -20 13 -32 14 -59 7 -18 -6 -34 -7 -35 -3 -2 5
-39 7 -83 7 -82 -1 -107 9 -77 31 25 18 21 31 -15 41 -27 8 -34 16 -39 44 l-6
35 -3 -30 c-1 -19 -4 -23 -7 -12 -2 9 -9 15 -14 12 -10 -7 -10 -7 -14 50 -2
22 0 33 3 25 7 -16 22 -17 59 -5 13 4 21 11 18 15 -9 15 50 24 125 19 8 0 53
7 99 16 59 12 114 15 185 12 127 -6 150 -10 171 -31 18 -17 17 -17 84 -21 24
-2 47 -9 52 -16 7 -13 16 -16 54 -21 25 -4 35 39 11 48 -9 3 -12 12 -9 22 5
12 2 14 -11 9 -14 -6 -17 -2 -14 20 4 36 22 39 35 6 l11 -28 1 33 c1 20 -7 40
-19 52 -16 16 -17 20 -5 20 18 0 20 31 3 48 -19 19 -33 14 -15 -6 28 -30 19
-38 -10 -10 -41 38 -73 52 -86 39 -8 -8 -8 -11 1 -11 6 0 9 -7 6 -15 -4 -8 -1
-15 5 -15 6 0 11 -9 11 -21 0 -11 -4 -18 -9 -15 -5 4 -12 0 -15 -6 -3 -7 -3
-3 0 9 6 26 -20 93 -37 93 -8 0 -8 -4 1 -15 11 -13 10 -14 -4 -9 -9 3 -16 16
-17 28 0 19 -1 19 -8 2 -6 -16 -9 -17 -22 -4 -16 16 -53 38 -65 38 -4 0 1 -9
11 -20 27 -30 2 -24 -29 6 -39 40 -31 14 12 -36 20 -24 36 -45 35 -47 -7 -8
-2 -23 6 -19 10 6 25 -24 16 -32 -3 -3 -5 -1 -5 5 0 12 -39 11 -58 -1 -22 -13
-33 7 -39 68 -5 52 -8 57 -27 52 -19 -5 -20 -4 -4 8 15 11 16 18 7 44 -6 17
-17 33 -25 36 -18 7 -18 -4 1 -30 8 -12 12 -24 8 -28 -3 -3 -13 7 -21 22 -44
81 -42 78 -42 57 0 -16 -2 -17 -9 -6 -5 8 -7 20 -4 27 2 7 -5 17 -16 24 -12 6
-21 8 -21 4 0 -4 -8 1 -19 10 -10 9 -31 19 -46 22 -15 3 -33 6 -39 7 -6 1 -14
7 -18 12 -5 6 -8 6 -8 -2 0 -7 -16 -10 -46 -8 -35 2 -50 -2 -62 -16 -9 -10
-23 -19 -31 -19 -12 0 -12 -3 -3 -12 7 -7 12 -16 12 -22 0 -5 -6 -2 -13 9 -8
10 -19 15 -25 11 -6 -4 -5 5 3 21 26 55 28 73 8 73 -17 1 -16 2 2 16 20 15 19
16 -13 45 -19 17 -40 28 -48 25 -8 -3 -14 -1 -14 4 0 14 -29 46 -77 86 l-43
35 -22 -20 c-12 -12 -27 -21 -32 -20 -19 2 -56 -13 -56 -22 0 -15 -30 -10 -36
6 -4 8 1 26 10 40 9 13 16 31 16 39 0 8 11 23 25 34 14 11 25 28 26 38 0 18 1
18 8 0 7 -18 8 -18 14 -2 4 10 7 25 7 34 0 8 18 37 40 63 22 26 40 52 40 57 0
6 11 32 24 59 19 38 24 65 25 128 1 95 6 139 31 265 25 130 23 147 -27 199
-23 24 -39 50 -36 57 3 9 -2 14 -14 14 -28 0 -34 10 -16 28 14 14 14 17 0 21
-10 4 -14 19 -13 54 0 26 -2 47 -6 47 -4 0 -10 11 -14 24 -4 17 -11 23 -25 21
-10 -2 -23 4 -29 13 -8 15 -9 15 -10 -3 0 -17 -2 -17 -10 -5 -5 8 -10 11 -10
6 0 -5 -6 -4 -12 1 -7 5 -20 9 -28 8 -8 0 -22 7 -31 17 -9 10 -24 18 -34 18
-9 0 -19 9 -22 20 -6 22 -28 27 -37 8 -3 -7 -4 -4 -1 7 4 16 -2 22 -30 31 -33
10 -48 3 -25 -11 16 -10 2 -24 -19 -18 -16 4 -18 9 -10 30 12 31 11 42 -1 23
-12 -20 -20 -9 -25 36 -2 22 -2 31 1 22 3 -10 9 -18 14 -18 13 0 28 32 23 48
-3 6 1 12 7 12 9 0 9 4 -1 16 -9 11 -10 17 -2 22 7 4 11 16 10 27 -1 14 5 21
21 23 15 2 22 10 22 24 0 12 -3 19 -6 15 -3 -3 -12 -1 -19 6 -10 9 -8 14 9 22
27 14 34 45 9 46 -16 0 -16 1 2 9 11 5 15 9 8 9 -13 1 -28 38 -25 59 2 6 -2
12 -8 12 -7 0 -9 8 -5 20 7 22 -5 26 -23 8 -18 -18 -28 0 -13 24 12 19 10 24
-24 54 -29 25 -34 34 -23 40 8 5 20 24 27 41 7 18 17 30 22 27 5 -3 9 2 9 11
0 11 5 15 14 12 9 -4 13 -1 10 6 -2 7 5 23 16 35 21 23 36 30 25 12 -3 -5 1
-10 10 -10 10 0 15 6 12 13 -11 28 52 43 96 23 11 -5 28 -4 43 2 18 9 24 9 24
-1 0 -8 3 -8 9 2 5 8 23 14 40 13 17 0 31 4 31 9 0 5 12 9 28 10 15 0 21 3 14
6 -27 11 3 23 59 23 49 0 59 -3 60 -17 0 -10 5 -3 10 15 8 28 12 31 29 22 10
-5 25 -10 32 -9 11 0 11 2 0 6 -10 4 -9 8 5 18 13 10 20 10 26 2 5 -9 11 -7
21 6 7 9 21 17 30 17 9 0 16 3 16 8 0 4 20 6 45 4 29 -3 45 -9 45 -17 0 -20
18 -28 46 -21 19 5 24 13 24 37 0 28 1 29 16 15 29 -29 59 -16 32 13 -11 12
-9 13 7 6 31 -12 71 -18 60 -8 -6 4 -12 18 -12 31 -1 16 4 22 18 22 11 0 23
-10 28 -22z m45 -13 c-4 -8 -8 -15 -10 -15 -2 0 -4 7 -4 15 0 8 4 15 10 15 5
0 7 -7 4 -15z m-311 -4 c11 -1 -2 -21 -14 -21 -6 0 -7 5 -4 10 4 7 -3 9 -19 6
-15 -3 -24 -1 -21 3 4 7 23 8 58 2z m335 -22 c-6 -16 -8 -33 -4 -36 3 -4 6 1
6 10 0 10 5 17 11 17 5 0 8 4 5 8 -3 5 1 9 9 9 10 0 13 -7 9 -24 -5 -17 -2
-23 10 -23 10 0 16 -9 17 -22 1 -18 2 -19 6 -5 2 9 9 15 14 12 5 -4 9 0 10 7
0 7 11 -9 24 -37 13 -27 24 -42 24 -32 1 15 4 16 22 7 20 -11 20 -13 3 -31 -9
-10 -21 -16 -26 -13 -11 7 -37 -24 -38 -44 0 -7 -6 -20 -14 -27 -11 -12 -17
-11 -34 8 -53 58 -87 181 -62 228 16 29 20 23 8 -12z m-468 6 c-7 -9 -15 -13
-19 -10 -3 3 1 10 9 15 21 14 24 12 10 -5z m665 -14 c3 -10 3 -25 0 -33 -4 -9
1 -18 9 -21 12 -5 16 1 17 21 2 25 2 25 6 4 6 -31 -31 -72 -58 -65 -24 7 -30
16 -36 56 l-5 32 26 -34 c23 -30 26 -32 26 -13 0 11 -7 25 -17 30 -10 6 -14
16 -10 26 9 22 34 20 42 -3z m92 -18 c-3 -10 -5 -4 -5 12 0 17 2 24 5 18 2 -7
2 -21 0 -30z m-529 5 c2 -9 -6 -18 -18 -21 -21 -5 -24 1 -14 28 8 19 28 15 32
-7z m-248 -18 c0 -5 -2 -10 -4 -10 -3 0 -8 5 -11 10 -3 6 -1 10 4 10 6 0 11
-4 11 -10z m-1803 -102 c-3 -8 -6 -5 -6 6 -1 11 2 17 5 13 3 -3 4 -12 1 -19z
m2473 -33 c-7 -9 -15 -13 -17 -11 -7 7 7 26 19 26 6 0 6 -6 -2 -15z m-30 -20
c0 -17 -6 -25 -17 -25 -14 0 -15 -2 -5 -9 11 -7 11 -9 -2 -14 -19 -7 -22 23
-6 54 15 27 30 24 30 -6z m-1185 -15 c-3 -5 -10 -10 -16 -10 -5 0 -9 5 -9 10
0 6 7 10 16 10 8 0 12 -4 9 -10z m1232 -15 c-4 -8 -11 -15 -17 -15 -6 0 -6 7
2 20 14 22 24 19 15 -5z m-1701 -244 c4 -11 7 -11 21 0 15 13 15 12 5 -8 -7
-12 -17 -24 -24 -26 -7 -3 -3 -6 10 -6 12 -1 22 4 22 11 0 6 3 8 7 5 4 -4 -2
-20 -13 -35 -34 -45 -37 -52 -20 -46 9 3 14 10 11 14 -3 4 2 11 11 14 14 5 16
1 11 -23 -4 -18 -2 -33 5 -37 7 -5 4 -10 -10 -15 -12 -5 -22 -13 -22 -19 0 -6
5 -8 10 -5 12 8 13 -15 1 -35 -16 -25 0 -31 19 -8 l19 23 -6 -23 c-3 -12 -9
-25 -14 -28 -15 -9 -10 -26 6 -20 8 3 15 1 15 -4 0 -14 -24 -12 -39 3 -11 10
-12 8 -6 -12 5 -16 4 -21 -4 -17 -6 4 -11 2 -11 -3 0 -6 -7 -11 -16 -11 -8 0
-13 -4 -9 -9 3 -5 1 -13 -5 -16 -8 -5 -8 -11 0 -20 6 -7 8 -21 4 -31 -5 -18
-5 -18 9 -1 8 9 20 17 27 17 7 0 10 7 6 15 -7 19 1 19 20 0 14 -13 14 -16 0
-21 -24 -9 -9 -23 17 -16 22 5 22 5 3 -16 -16 -19 -17 -22 -3 -22 9 0 19 5 22
10 3 6 12 10 18 10 7 -1 5 -6 -5 -13 -19 -15 -26 -47 -13 -66 5 -10 4 -16 -3
-19 -7 -2 -12 -9 -12 -15 0 -7 -34 -47 -75 -89 -41 -43 -75 -84 -75 -91 0 -8
-7 -20 -16 -27 -8 -8 -19 -21 -25 -31 -8 -15 -6 -17 6 -13 13 5 15 1 11 -20
-2 -14 -7 -30 -11 -36 -3 -5 2 -10 11 -10 16 0 16 -1 1 -18 -10 -10 -17 -25
-17 -33 0 -12 2 -11 10 1 9 13 10 13 10 0 0 -9 -5 -21 -12 -28 -9 -9 -7 -16 7
-32 10 -11 14 -20 9 -20 -5 0 -9 -10 -10 -22 0 -13 -4 -50 -8 -83 -12 -92 -10
-146 5 -155 10 -7 10 -11 0 -24 -12 -14 -10 -16 7 -16 16 0 20 -4 15 -16 -5
-14 -3 -14 27 1 25 13 34 14 40 5 4 -7 13 -9 19 -6 6 4 11 0 11 -8 0 -9 9 -16
20 -16 14 0 20 -6 18 -17 -2 -12 4 -19 20 -21 18 -3 21 -8 16 -28 -5 -17 -2
-24 9 -24 8 0 18 -6 21 -12 3 -7 3 -3 0 10 -6 26 4 28 32 7 21 -16 45 -20 41
-6 -1 5 3 9 8 9 6 0 9 -4 8 -9 -2 -5 9 -9 23 -9 17 0 24 -4 21 -12 -6 -16 91
-12 111 4 8 7 17 6 29 -3 11 -10 17 -11 20 -3 2 7 13 10 24 7 11 -3 18 -11 15
-19 -3 -8 0 -11 10 -7 7 3 14 10 14 17 0 14 77 19 85 6 3 -5 12 -7 20 -3 8 3
15 1 15 -5 0 -6 -6 -12 -12 -15 -8 -3 -3 -9 12 -15 14 -6 20 -11 14 -11 -7 -1
-15 -17 -18 -36 -4 -19 -11 -35 -17 -35 -6 0 -7 -5 -3 -12 5 -8 2 -9 -10 -5
-14 6 -17 3 -12 -9 4 -11 -2 -26 -15 -40 -11 -12 -18 -27 -15 -33 10 -15 -12
-51 -37 -61 -13 -5 -16 -9 -7 -9 17 -1 46 -41 30 -41 -5 0 -10 -4 -10 -10 0
-5 7 -7 15 -4 11 5 13 2 9 -10 -3 -9 -1 -23 6 -31 9 -10 9 -15 1 -15 -6 0 -11
5 -11 10 0 6 -9 10 -21 10 -19 0 -19 -1 -5 -16 21 -21 20 -27 -3 -19 -17 5
-19 2 -15 -20 3 -18 0 -25 -11 -25 -8 0 -15 8 -16 18 0 12 -3 10 -10 -7 -7
-17 -6 -27 1 -31 7 -5 6 -11 -5 -20 -12 -10 -15 -10 -15 1 0 17 -50 19 -67 2
-18 -16 -16 -33 2 -33 8 0 15 7 15 15 0 8 6 15 14 15 11 0 12 -5 3 -25 -11
-23 -16 -25 -49 -20 -34 6 -36 5 -31 -17 6 -21 5 -22 -11 -9 -14 12 -18 12
-30 -4 -12 -17 -13 -17 -20 0 -4 11 0 23 11 32 17 14 17 14 -1 9 -10 -4 -26 0
-35 7 -9 8 -28 17 -43 21 -19 4 -25 11 -22 21 4 8 -1 17 -10 21 -9 3 -16 12
-16 20 0 16 -12 18 -26 4 -6 -6 -10 -3 -10 9 0 11 5 17 13 14 7 -3 13 2 13 12
0 9 -4 14 -9 10 -12 -7 -25 31 -16 46 4 6 -2 13 -13 16 -11 3 -23 12 -26 20
-5 13 -9 13 -22 2 -13 -11 -14 -9 -8 16 4 18 3 26 -3 22 -12 -8 -24 -57 -14
-57 4 0 7 -9 8 -20 2 -17 -2 -20 -19 -14 -19 6 -20 3 -14 -47 3 -31 2 -43 -2
-29 -9 30 -36 33 -39 5 l-3 -20 9 20 c8 17 10 14 10 -15 0 -19 -3 -30 -7 -24
-8 13 -46 2 -48 -15 -6 -48 -5 -47 -14 -26 -7 16 -9 12 -10 -20 -2 -39 -3 -39
-10 -10 -7 29 -8 29 -10 5 -2 -21 -4 -19 -9 10 -4 19 -4 39 1 44 4 6 8 15 8
20 0 6 -9 -2 -20 -19 l-20 -30 0 33 c0 20 -4 31 -10 27 -5 -3 -10 -3 -10 2 0
9 -10 67 -40 238 -27 155 -28 290 -1 540 30 283 46 367 89 455 20 41 41 78 47
82 5 4 7 8 3 8 -4 0 1 16 12 36 11 19 18 39 15 44 -7 11 5 40 17 40 5 0 17 8
26 17 16 15 15 16 -13 9 l-30 -8 24 26 c24 25 17 38 -7 14 -6 -6 -15 -8 -19
-4 -4 4 -1 11 6 16 12 7 11 11 -2 25 -21 21 -21 21 3 55 14 19 17 31 9 35 -5
4 -8 13 -5 20 2 7 -1 18 -7 24 -6 6 -12 31 -13 55 -3 42 -1 45 34 60 20 8 29
15 20 15 -28 1 -24 47 5 55 18 5 20 8 7 16 -13 8 -12 10 3 10 11 0 17 8 18 23
1 20 2 20 6 2 2 -11 6 -26 9 -34z m-56 9 c0 -5 -2 -10 -4 -10 -3 0 -8 5 -11
10 -3 6 -1 10 4 10 6 0 11 -4 11 -10z m530 -10 c0 -5 -5 -10 -11 -10 -5 0 -7
5 -4 10 3 6 8 10 11 10 2 0 4 -4 4 -10z m-560 -255 c0 -8 -4 -15 -10 -15 -5 0
-10 7 -10 15 0 8 5 15 10 15 6 0 10 -7 10 -15z m517 -31 c-3 -3 -12 -4 -19 -1
-8 3 -5 6 6 6 11 1 17 -2 13 -5z m-356 -26 c9 -19 9 -21 -2 -10 -16 14 -33 16
-24 2 3 -5 1 -10 -4 -10 -12 0 -15 23 -4 33 12 12 22 7 34 -15z m-51 -8 c0 -5
-4 -10 -10 -10 -5 0 -10 -7 -10 -15 0 -8 -4 -15 -10 -15 -14 0 -13 23 2 38 15
15 28 16 28 2z m60 -30 c0 -5 -5 -10 -11 -10 -5 0 -7 5 -4 10 3 6 8 10 11 10
2 0 4 -4 4 -10z m380 -516 c0 -8 -5 -12 -10 -9 -6 4 -8 11 -5 16 9 14 15 11
15 -7z m30 2 c0 -3 -4 -8 -10 -11 -5 -3 -10 -1 -10 4 0 6 5 11 10 11 6 0 10
-2 10 -4z m-13 -92 c8 -22 -18 -37 -36 -20 -7 8 -10 19 -7 25 10 16 36 13 43
-5z m64 -11 c20 -24 23 -67 7 -80 -7 -6 -30 -16 -52 -22 l-39 -10 20 22 c33
36 52 84 40 96 -7 7 -8 11 -1 11 6 0 17 -8 25 -17z m-271 -43 c7 -17 26 -42
42 -55 l30 -25 -39 0 c-21 0 -60 10 -87 23 l-49 22 28 33 c34 40 59 41 75 2z
m2357 -47 c-3 -10 -5 -2 -5 17 0 19 2 27 5 18 2 -10 2 -26 0 -35z m63 4 c0
-14 -12 -32 -30 -45 -16 -13 -30 -29 -30 -37 0 -8 -4 -15 -8 -15 -15 0 -12 61
4 67 8 3 14 13 14 22 0 23 9 31 32 31 12 0 18 -7 18 -23z m-3137 -307 c6 -28
-14 -93 -32 -104 -4 -3 -11 -24 -15 -46 -13 -84 -28 -140 -35 -135 -13 7 30
258 51 298 13 25 25 21 31 -13z m3002 -219 c3 -5 1 -12 -5 -16 -5 -3 -10 1
-10 9 0 18 6 21 15 7z m28 -97 c7 -33 5 -46 -13 -77 -12 -21 -24 -36 -27 -33
-2 2 -5 29 -6 59 -2 48 0 54 12 44 12 -10 13 -7 8 21 -5 25 -3 32 6 29 6 -2
16 -21 20 -43z m-3106 -16 c-3 -8 -6 -5 -6 6 -1 11 2 17 5 13 3 -3 4 -12 1
-19z m20 -60 c-3 -7 -5 -2 -5 12 0 14 2 19 5 13 2 -7 2 -19 0 -25z m543 -8 c0
-5 -7 -10 -16 -10 -8 0 -12 5 -9 10 3 6 10 10 16 10 5 0 9 -4 9 -10z m30 -50
c0 -5 -4 -10 -10 -10 -5 0 -10 5 -10 10 0 6 5 10 10 10 6 0 10 -4 10 -10z
m-70 -9 c0 -6 -4 -13 -10 -16 -5 -3 -10 1 -10 9 0 9 5 16 10 16 6 0 10 -4 10
-9z m-367 -58 c7 -42 6 -46 -16 -37 -20 7 -29 31 -22 55 10 32 32 21 38 -18z
m269 -65 c-7 -7 -12 -8 -12 -2 0 14 12 26 19 19 2 -3 -1 -11 -7 -17z m1168
-22 c0 -3 -4 -8 -10 -11 -5 -3 -10 -1 -10 4 0 6 5 11 10 11 6 0 10 -2 10 -4z
m-1430 -66 c8 -5 11 -10 5 -10 -5 0 -17 5 -25 10 -8 5 -10 10 -5 10 6 0 17 -5
25 -10z m1527 -72 c-3 -7 -5 -2 -5 12 0 14 2 19 5 13 2 -7 2 -19 0 -25z m20 0
c-3 -8 -6 -5 -6 6 -1 11 2 17 5 13 3 -3 4 -12 1 -19z m-10 -27 c15 5 23 3 27
-7 3 -9 1 -12 -4 -9 -12 8 -13 -45 -1 -64 7 -11 11 -10 20 7 13 25 14 35 2 27
-14 -8 -21 9 -7 20 22 19 46 17 46 -5 0 -11 5 -20 11 -20 6 0 8 9 3 23 -3 12
-3 19 1 15 5 -4 14 -3 22 3 17 14 17 -3 1 -20 -11 -11 -9 -15 6 -25 11 -6 28
-19 38 -28 26 -26 47 -22 54 10 10 47 12 48 13 6 1 -22 -6 -49 -14 -60 -8 -11
-15 -14 -15 -6 0 6 -9 12 -20 12 -13 0 -18 -5 -14 -15 5 -11 -2 -15 -26 -15
-27 0 -32 3 -27 20 3 11 1 20 -4 20 -5 0 -10 -10 -10 -22 -2 -22 -2 -22 -6 -2
-4 21 -53 42 -53 23 0 -16 5 -24 13 -21 4 1 7 -2 7 -8 0 -5 -4 -10 -9 -10 -5
0 -23 -3 -40 -6 -25 -5 -31 -3 -31 10 0 13 -5 16 -21 11 -15 -5 -19 -4 -15 4
4 6 2 11 -3 11 -6 0 -11 -3 -11 -7 0 -5 -13 -16 -29 -25 -30 -17 -71 -14 -71
4 0 6 6 8 14 5 8 -3 17 1 20 9 3 7 2 13 -2 13 -22 -4 -32 4 -32 24 0 18 2 19
10 7 6 -10 10 -11 10 -2 0 6 8 12 18 12 9 0 28 9 41 19 14 10 31 17 38 14 9
-3 13 3 12 18 -1 14 -3 17 -6 8 -3 -11 -12 -14 -33 -11 -17 2 -27 8 -24 14 3
5 15 6 26 2 17 -5 19 -3 13 17 -7 22 -7 22 16 7 16 -10 31 -13 46 -7z m-203
-26 c3 -8 1 -15 -4 -15 -6 0 -10 7 -10 15 0 8 2 15 4 15 2 0 6 -7 10 -15z m83
8 c-4 -3 -2 -12 4 -20 9 -10 5 -13 -18 -13 -16 0 -33 3 -36 7 -11 10 14 33 36
33 11 0 17 -3 14 -7z m466 -58 c10 -14 14 -25 10 -25 -4 0 -16 12 -26 25 -10
14 -14 25 -10 25 4 0 16 -12 26 -25z m41 -10 c-4 -8 -8 -15 -10 -15 -2 0 -4 7
-4 15 0 8 4 15 10 15 5 0 7 -7 4 -15z m116 -10 c7 -8 9 -15 6 -15 -4 0 -14 7
-22 15 -9 8 -11 15 -6 15 5 0 15 -7 22 -15z m-107 -22 c-7 -2 -13 -12 -13 -21
0 -13 -3 -13 -12 -4 -10 10 -10 15 2 22 8 5 20 9 25 9 6 0 4 -3 -2 -6z m142
-31 c3 -9 0 -21 -8 -27 -7 -5 -12 -17 -9 -25 4 -11 1 -11 -12 2 -9 10 -23 15
-31 12 -8 -4 -15 -1 -15 5 0 14 32 29 49 23 9 -3 11 0 6 7 -4 7 -13 10 -21 7
-8 -3 -14 -1 -14 3 0 25 45 19 55 -7z m385 -157 c0 -5 -5 -3 -10 5 -5 8 -10
20 -10 25 0 6 5 3 10 -5 5 -8 10 -19 10 -25z m-90 -316 c0 -6 -4 -7 -10 -4 -5
3 -10 11 -10 16 0 6 5 7 10 4 6 -3 10 -11 10 -16z m-40 -29 c-18 -11 -22 -7
-14 14 5 13 10 14 18 6 8 -8 7 -13 -4 -20z m-130 -44 c0 -3 -4 -8 -10 -11 -5
-3 -10 -1 -10 4 0 6 5 11 10 11 6 0 10 -2 10 -4z m155 -14 c-3 -3 -11 0 -18 7
-9 10 -8 11 6 5 10 -3 15 -9 12 -12z m-925 -90 c0 -5 -7 -17 -16 -28 -8 -10
-14 -14 -11 -9 2 6 7 18 10 28 7 17 17 23 17 9z m-3 -94 c-3 -7 -5 -2 -5 12 0
14 2 19 5 13 2 -7 2 -19 0 -25z m513 7 c11 -13 10 -14 -4 -9 -9 3 -16 10 -16
15 0 13 6 11 20 -6z m-105 -15 c3 -5 2 -10 -4 -10 -5 0 -13 5 -16 10 -3 6 -2
10 4 10 5 0 13 -4 16 -10z m565 -260 c0 -5 -4 -10 -10 -10 -5 0 -10 5 -10 10
0 6 5 10 10 10 6 0 10 -4 10 -10z"/>
<path d="M9240 15780 c0 -5 5 -10 11 -10 5 0 7 5 4 10 -3 6 -8 10 -11 10 -2 0
-4 -4 -4 -10z"/>
<path d="M9250 15730 c0 -5 4 -10 9 -10 6 0 13 5 16 10 3 6 -1 10 -9 10 -9 0
-16 -4 -16 -10z"/>
<path d="M9170 15701 c0 -5 7 -14 15 -21 16 -14 18 -10 9 14 -6 17 -24 22 -24
7z"/>
<path d="M9016 15681 c-4 -5 3 -7 14 -4 23 6 26 13 6 13 -8 0 -17 -4 -20 -9z"/>
<path d="M8700 15636 c0 -2 7 -7 16 -10 8 -3 12 -2 9 4 -6 10 -25 14 -25 6z"/>
<path d="M9539 15464 c-5 -15 -7 -29 -4 -32 3 -4 8 4 12 16 3 12 9 22 14 22 5
0 9 5 9 10 0 20 -21 9 -31 -16z"/>
<path d="M8270 15420 c0 -11 5 -20 10 -20 6 0 10 9 10 20 0 11 -4 20 -10 20
-5 0 -10 -9 -10 -20z"/>
<path d="M9256 14834 c-15 -9 -42 -17 -59 -20 -16 -2 -39 -13 -49 -24 -19 -20
-20 -20 -34 -3 -12 17 -13 16 -14 -7 0 -20 -2 -22 -10 -10 -5 8 -10 11 -10 5
0 -5 -5 -3 -10 5 -8 12 -10 11 -10 -7 0 -13 -5 -22 -11 -20 -6 1 -14 -5 -18
-13 -5 -8 -13 -25 -19 -37 -7 -13 -12 -35 -11 -50 l1 -28 8 25 8 25 1 -25 c1
-20 3 -22 11 -10 8 12 10 11 10 -7 0 -13 4 -23 9 -23 5 0 12 -9 16 -19 7 -22
45 -18 45 5 0 8 5 14 10 14 6 0 9 -3 9 -7 -4 -28 3 -32 46 -28 31 3 45 1 46
-8 0 -6 4 -3 9 8 7 17 9 17 9 3 1 -10 4 -17 9 -17 4 1 14 1 22 0 27 -2 -11
-21 -44 -21 -21 0 -27 -4 -22 -15 3 -8 -1 -20 -8 -27 -7 -7 -27 -44 -45 -81
-28 -58 -31 -71 -19 -84 10 -13 10 -17 1 -20 -21 -7 15 -36 37 -30 11 3 20 1
20 -4 0 -5 -4 -9 -10 -9 -5 0 -10 -9 -10 -20 0 -11 6 -20 14 -20 24 0 38 -26
21 -40 -16 -13 -21 -35 -6 -26 13 8 42 -4 35 -15 -3 -5 5 -9 18 -10 22 0 22
-1 3 -9 -19 -8 -19 -9 3 -9 12 -1 25 -7 28 -15 3 -8 12 -17 20 -20 9 -3 12 -1
9 4 -9 15 8 12 33 -6 12 -8 22 -10 22 -5 0 6 4 11 10 11 5 0 7 -8 3 -17 -5
-14 -1 -13 19 5 30 27 48 29 23 2 -10 -11 -13 -20 -7 -20 7 0 12 5 12 11 0 8
24 10 74 7 41 -2 70 -1 65 3 -5 3 -7 13 -4 22 4 10 -1 20 -14 27 -26 14 -28
40 -2 35 14 -3 18 1 14 16 -6 21 12 27 20 7 4 -10 6 -10 6 0 1 7 15 12 37 12
19 0 33 4 30 9 -7 11 28 19 82 17 23 -1 42 3 42 7 0 5 8 3 17 -4 15 -12 16
-12 11 3 -10 24 18 31 48 12 13 -9 27 -14 31 -10 3 3 1 6 -5 6 -7 0 -12 5 -12
10 0 6 7 10 15 10 8 0 15 5 15 11 0 6 -7 9 -15 5 -9 -3 -15 0 -15 9 0 8 -3 15
-7 16 -30 3 -47 9 -54 21 -5 7 -9 10 -9 6 0 -5 -28 7 -63 25 -35 17 -67 33
-73 34 -36 8 -119 43 -122 52 -2 6 -8 9 -13 5 -5 -3 -9 3 -9 13 0 15 -2 16
-10 3 -8 -13 -10 -12 -10 3 0 19 2 19 79 17 73 -2 150 -33 212 -83 79 -66 111
-87 128 -87 11 0 7 8 -14 25 -21 18 -24 23 -10 18 28 -9 -38 61 -87 93 -39 25
-64 32 -53 14 3 -6 -1 -7 -9 -4 -9 3 -14 10 -11 14 3 5 0 12 -6 16 -8 4 -9 3
-5 -4 9 -15 10 -15 -54 8 -30 11 -65 20 -77 20 -13 0 -23 5 -23 10 0 6 -9 10
-21 10 -11 0 -18 4 -15 9 5 7 -21 17 -91 36 -23 6 -32 25 -13 25 6 0 10 -4 10
-10 0 -5 5 -10 11 -10 5 0 8 3 5 8 -14 23 49 62 102 62 15 0 36 7 47 15 13 10
30 13 53 9 25 -5 33 -3 28 5 -5 7 1 11 16 11 18 0 20 -2 8 -10 -8 -5 -10 -10
-5 -11 32 -4 41 -3 53 9 7 6 18 12 25 12 6 0 3 -6 -7 -13 -16 -12 -15 -13 14
-11 17 1 34 5 37 8 3 3 19 -4 34 -15 16 -11 38 -21 49 -22 17 -1 23 -8 22 -27
0 -3 13 -6 30 -6 l30 -1 -32 20 c-21 13 -29 25 -25 36 3 8 3 12 -1 9 -3 -4
-15 3 -25 15 -10 12 -18 18 -19 13 0 -5 7 -18 17 -28 14 -16 15 -18 0 -18 -9
0 -19 5 -22 10 -3 6 -23 19 -43 30 l-37 19 30 1 30 0 -37 25 c-20 14 -42 25
-48 25 -6 0 -8 5 -5 10 3 6 -3 10 -14 10 -11 0 -23 -5 -26 -10 -4 -7 -11 -7
-18 -2 -7 5 -30 10 -52 11 -22 1 -59 6 -83 12 -33 7 -48 6 -61 -3 -14 -11 -14
-11 -3 3 11 14 6 16 -49 17 -33 1 -71 -3 -84 -8 -15 -6 -27 -6 -30 0 -4 6 4
10 17 11 22 0 22 1 3 8 -12 5 -23 4 -27 -3 -6 -8 -11 -7 -17 3 -7 10 -13 11
-31 1 -28 -15 -41 -3 -16 16 26 19 8 17 -28 -2z m144 -502 c0 -10 9 -34 19
-55 10 -20 17 -37 15 -37 -2 0 -22 7 -44 16 -38 15 -45 28 -40 64 4 31 50 42
50 12z m200 -1 c0 -22 -21 -33 -40 -21 -18 11 -4 40 20 40 13 0 20 -7 20 -19z
m79 -5 c74 -39 62 -66 -43 -96 l-69 -19 24 27 c13 15 27 28 31 30 4 2 10 19
14 38 7 39 6 39 43 20z"/>
<path d="M9997 14586 c-6 -16 19 -43 30 -33 3 4 -1 9 -10 13 -9 3 -13 12 -10
20 3 8 3 14 0 14 -3 0 -7 -6 -10 -14z"/>
<path d="M8571 13634 c0 -11 3 -14 6 -6 3 7 2 16 -1 19 -3 4 -6 -2 -5 -13z"/>
<path d="M9005 13522 c-33 -3 -105 -31 -105 -41 0 -4 42 -8 92 -9 51 -2 97 -7
103 -11 13 -11 75 -20 75 -11 0 12 -61 51 -98 63 -20 7 -50 11 -67 9z"/>
<path d="M10080 13129 c0 -5 5 -7 10 -4 6 3 10 8 10 11 0 2 -4 4 -10 4 -5 0
-10 -5 -10 -11z"/>
<path d="M9470 13119 c0 -5 5 -7 10 -4 6 3 10 8 10 11 0 2 -4 4 -10 4 -5 0
-10 -5 -10 -11z"/>
<path d="M9275 13079 c-4 -6 -5 -12 -2 -15 2 -3 7 2 10 11 7 17 1 20 -8 4z"/>
<path d="M9600 13006 c0 -14 4 -27 8 -30 5 -3 6 8 4 25 -5 35 -12 38 -12 5z"/>
<path d="M9611 12904 c0 -11 3 -14 6 -6 3 7 2 16 -1 19 -3 4 -6 -2 -5 -13z"/>
<path d="M9741 12563 c7 -10 15 -20 16 -22 2 -2 3 3 3 11 0 9 -7 19 -16 22
-15 6 -15 4 -3 -11z"/>
<path d="M9620 12552 c0 -5 7 -15 15 -22 8 -7 15 -8 15 -2 0 5 -7 15 -15 22
-8 7 -15 8 -15 2z"/>
<path d="M9050 12539 c0 -5 5 -7 10 -4 6 3 10 8 10 11 0 2 -4 4 -10 4 -5 0
-10 -5 -10 -11z"/>
<path d="M9670 12490 c-13 -8 -12 -10 3 -10 9 0 17 5 17 10 0 12 -1 12 -20 0z"/>
<path d="M9041 12334 c0 -11 3 -14 6 -6 3 7 2 16 -1 19 -3 4 -6 -2 -5 -13z"/>
<path d="M7740 15153 c0 -5 10 -18 23 -29 l22 -19 -20 25 c-11 14 -21 27 -22
29 -2 2 -3 0 -3 -6z"/>
<path d="M7834 15145 c-3 -8 -4 -20 -2 -27 3 -7 7 -1 10 15 6 29 1 36 -8 12z"/>
<path d="M7830 15054 c0 -14 4 -23 9 -20 5 3 7 15 4 26 -7 28 -13 25 -13 -6z"/>
<path d="M7799 14983 c-13 -16 -12 -17 4 -4 16 13 21 21 13 21 -2 0 -10 -8
-17 -17z"/>
<path d="M7744 14963 c10 -11 36 -12 36 -2 0 5 -10 9 -22 9 -12 0 -18 -3 -14
-7z"/>
<path d="M7805 14850 c-3 -5 -2 -10 4 -10 5 0 13 5 16 10 3 6 2 10 -4 10 -5 0
-13 -4 -16 -10z"/>
<path d="M8015 13840 c4 -6 11 -8 16 -5 14 9 11 15 -7 15 -8 0 -12 -5 -9 -10z"/>
<path d="M7755 13729 c-4 -6 -5 -12 -2 -15 2 -3 7 2 10 11 7 17 1 20 -8 4z"/>
<path d="M7805 13600 c-3 -6 1 -7 9 -4 18 7 21 14 7 14 -6 0 -13 -4 -16 -10z"/>
<path d="M8991 13114 c0 -11 3 -14 6 -6 3 7 2 16 -1 19 -3 4 -6 -2 -5 -13z"/>
<path d="M8951 13074 c0 -11 3 -14 6 -6 3 7 2 16 -1 19 -3 4 -6 -2 -5 -13z"/>
<path d="M8920 13070 c0 -5 5 -10 10 -10 6 0 10 5 10 10 0 6 -4 10 -10 10 -5
0 -10 -4 -10 -10z"/>
<path d="M8988 13055 c-3 -14 -1 -25 3 -25 5 0 9 11 9 25 0 14 -2 25 -4 25 -2
0 -6 -11 -8 -25z"/>
<path d="M7652 16825 c0 -16 2 -22 5 -12 2 9 2 23 0 30 -3 6 -5 -1 -5 -18z"/>
<path d="M10610 13966 c0 -35 22 -116 32 -116 11 0 10 19 -3 79 -12 56 -29 77
-29 37z"/>
<path d="M10584 13448 c-13 -17 -20 -38 -16 -50 5 -19 5 -20 15 -2 6 11 17 25
24 32 15 15 16 22 5 39 -5 8 -14 1 -28 -19z"/>
<path d="M10314 11835 c5 -11 22 -60 39 -110 48 -142 49 -331 7 -1185 -6 -113
-15 -306 -20 -430 -12 -279 -76 -940 -94 -968 -2 -4 -9 -70 -16 -147 -6 -77
-23 -203 -36 -280 -14 -77 -32 -185 -40 -239 -8 -55 -26 -154 -40 -220 -15
-67 -34 -157 -43 -201 -10 -45 -43 -157 -74 -250 -31 -94 -67 -210 -80 -260
-95 -353 -186 -620 -206 -599 -5 5 -6 134 -1 294 4 157 4 368 -1 470 -13 283
-28 580 -39 740 -6 80 -15 215 -20 300 -12 176 -42 456 -70 670 -20 151 -44
244 -86 342 -14 32 -34 83 -44 114 -11 31 -24 62 -29 68 -5 6 -23 46 -41 90
-17 43 -51 120 -75 170 -49 100 -56 146 -29 201 22 47 80 113 107 120 31 10
103 81 142 141 72 111 116 144 145 109 10 -12 8 -16 -11 -24 -22 -9 -21 -10
12 -10 20 -1 39 -4 43 -8 4 -5 12 -9 17 -9 5 -1 13 -2 19 -3 5 0 13 -16 18
-33 6 -25 14 -33 33 -35 38 -2 111 -32 130 -54 9 -10 24 -19 34 -19 19 0 49
-30 70 -71 18 -34 108 -116 113 -101 4 14 -102 153 -160 209 -24 23 -95 78
-158 122 -63 44 -157 111 -207 148 -88 64 -167 102 -261 126 -32 8 -66 7 -131
-2 -93 -13 -124 -9 -181 21 -19 10 -51 18 -71 18 -44 0 -163 -59 -247 -123
-31 -23 -69 -50 -83 -59 -14 -9 -39 -31 -55 -49 -16 -18 -66 -69 -112 -113
-76 -73 -222 -251 -222 -271 0 -4 -8 -14 -17 -22 -14 -10 -14 -13 -3 -11 8 2
26 16 40 31 63 72 128 131 158 143 19 9 32 21 32 32 0 18 10 22 57 23 43 2
193 -107 193 -140 0 -9 -9 -22 -20 -29 -41 -26 -23 -35 58 -29 69 4 80 3 90
-14 22 -34 19 -47 -51 -230 -82 -212 -189 -712 -226 -1049 -6 -52 -24 -212
-41 -355 -18 -163 -33 -362 -40 -535 -6 -151 -13 -288 -17 -305 -3 -16 -9
-104 -12 -195 -3 -92 -10 -164 -15 -163 -9 2 -42 87 -106 273 -16 47 -36 105
-45 130 -50 137 -131 475 -205 855 -27 143 -59 303 -69 355 -11 52 -25 133
-31 180 -6 47 -17 137 -26 200 -9 63 -20 198 -25 300 -5 102 -15 226 -24 275
-8 50 -15 126 -15 170 0 44 -5 98 -11 120 -5 22 -16 162 -24 310 -12 227 -18
288 -41 380 -37 152 -39 369 -6 524 13 57 21 106 18 108 -2 3 -13 -12 -24 -34
-28 -54 -147 -211 -196 -258 -23 -22 -66 -56 -96 -76 -30 -20 -77 -54 -103
-76 -27 -22 -61 -47 -75 -54 -15 -8 -47 -25 -72 -40 -74 -42 -220 -115 -305
-152 -44 -19 -107 -47 -140 -62 -189 -88 -488 -196 -715 -259 -359 -101 -494
-151 -690 -259 -247 -136 -259 -153 -330 -472 -17 -77 -35 -156 -40 -175 -5
-19 -16 -66 -23 -105 -8 -38 -29 -124 -46 -190 -26 -97 -33 -146 -38 -259 -2
-76 -11 -162 -19 -190 -8 -28 -23 -89 -33 -136 -11 -47 -24 -98 -30 -113 -6
-16 -11 -42 -11 -60 0 -17 -9 -40 -19 -51 -49 -53 -126 -317 -135 -462 l-6
-89 24 68 c24 70 49 107 73 107 8 0 13 -12 13 -30 0 -16 5 -30 10 -30 15 0
-64 -114 -95 -138 -22 -18 -32 -44 -60 -164 -19 -79 -52 -208 -74 -288 -78
-284 -95 -370 -71 -355 15 9 12 -28 -4 -50 -7 -11 -21 -49 -30 -85 -10 -36
-22 -82 -27 -104 -6 -21 -14 -88 -19 -150 -5 -61 -20 -160 -34 -221 -33 -139
-79 -373 -107 -535 -12 -69 -30 -168 -41 -220 -11 -52 -21 -122 -22 -155 -2
-33 -8 -76 -14 -95 -17 -51 -60 -321 -67 -425 -4 -50 -11 -106 -16 -125 -4
-19 -15 -84 -24 -143 -8 -60 -17 -112 -20 -117 -3 -5 -12 -77 -20 -162 -17
-173 -12 -261 31 -530 24 -149 67 -307 139 -508 50 -139 215 -634 265 -792 26
-86 63 -189 81 -230 30 -69 105 -266 134 -353 16 -50 81 -205 130 -310 20 -44
46 -100 57 -125 26 -58 89 -182 98 -195 5 -5 21 -50 38 -100 16 -49 65 -171
107 -270 43 -99 91 -216 107 -260 16 -44 53 -141 83 -215 71 -177 83 -229 95
-406 6 -82 17 -205 25 -274 8 -69 15 -144 15 -167 l0 -43 3594 0 3595 0 6 48
c11 75 101 434 129 510 7 20 72 161 143 312 235 499 280 610 334 830 15 63 35
142 43 175 8 33 22 101 31 150 23 131 80 351 109 420 26 65 91 352 132 580 13
77 33 183 44 235 12 52 25 122 30 155 47 300 69 451 74 515 4 41 14 122 22
180 8 58 15 158 15 223 0 65 4 153 10 195 16 135 29 698 19 838 -6 71 -15 206
-20 299 -6 94 -17 247 -25 340 -19 213 -41 478 -60 705 -8 96 -21 227 -29 290
-8 63 -17 158 -21 210 -13 196 -47 466 -72 569 -14 58 -29 162 -34 231 -8 108
-37 273 -92 520 -8 36 -22 121 -31 190 -10 69 -23 152 -31 185 -7 33 -23 119
-34 190 -26 155 -67 368 -86 445 -8 30 -30 118 -49 195 -70 280 -161 544 -215
625 -52 79 -106 110 -302 174 -352 115 -631 227 -839 337 -85 45 -149 72 -200
83 -155 35 -197 48 -265 85 -38 21 -99 48 -135 61 -36 12 -96 39 -135 59 -38
21 -113 53 -165 71 -145 50 -186 72 -305 168 -151 122 -228 207 -250 274 -22
65 -62 146 -83 167 -14 15 -15 14 -8 -4z m276 -478 c22 -44 24 -57 12 -57 -11
0 -52 77 -52 97 0 23 19 5 40 -40z m-1450 -1171 c0 -28 -17 -8 -25 29 -7 29
-7 29 8 10 9 -11 17 -29 17 -39z m7 -58 c-3 -7 -5 -2 -5 12 0 14 2 19 5 13 2
-7 2 -19 0 -25z m-4083 -548 c-14 -14 -38 5 -30 26 6 16 8 16 23 1 11 -11 14
-20 7 -27z m-511 -2180 c-3 -11 -10 -23 -16 -27 -5 -3 -8 -2 -5 3 3 5 8 17 11
27 9 24 16 22 10 -3z m237 -676 c0 -9 -67 -151 -105 -225 -67 -128 -114 -207
-191 -323 -45 -67 -89 -138 -99 -157 -23 -45 -118 -179 -127 -179 -14 0 -8 37
8 51 8 7 41 56 71 108 31 53 77 127 102 166 62 94 82 130 253 453 29 54 55 92
64 92 8 0 12 5 9 10 -3 6 -1 10 4 10 6 0 11 -3 11 -6z m1429 -49 c34 -90 81
-313 101 -475 5 -47 19 -152 31 -235 38 -283 84 -741 105 -1060 7 -106 -6
-251 -31 -365 -41 -180 -82 -412 -110 -630 -24 -181 -54 -349 -74 -420 -10
-36 -26 -94 -36 -130 -44 -165 -117 -379 -135 -395 -19 -17 -21 -17 -54 18
-24 26 -44 66 -69 139 -20 57 -47 133 -61 170 -25 65 -50 160 -115 433 -35
149 -40 175 -81 460 -47 328 -56 473 -36 630 22 174 41 287 71 425 35 161 108
522 134 665 37 199 73 310 176 545 98 223 129 280 152 280 6 0 21 -25 32 -55z
m5931 -732 c5 -21 19 -123 30 -228 11 -104 27 -235 35 -290 8 -55 19 -140 25
-190 14 -130 48 -377 65 -465 43 -230 50 -296 37 -392 -6 -51 -21 -127 -32
-168 -32 -115 -58 -231 -90 -395 -30 -158 -51 -231 -66 -229 -16 2 -44 73 -75
192 -43 160 -47 182 -64 297 -54 357 -75 545 -75 659 0 104 35 565 50 646 5
30 14 104 20 165 17 168 90 435 120 435 5 0 14 -17 20 -37z m521 -4828 c34
-59 36 -69 9 -55 -23 12 -70 89 -70 115 0 27 26 2 61 -60z"/>
<path d="M9347 11174 c-26 -14 -74 -29 -105 -34 -121 -21 -172 -33 -172 -41 0
-13 120 -11 182 2 29 6 67 23 84 38 18 14 42 34 55 44 33 24 12 20 -44 -9z"/>
<path d="M7921 10566 c-1 -34 2 -47 9 -40 7 7 7 24 1 50 l-9 39 -1 -49z"/>
<path d="M8215 10380 c-5 -8 -15 -26 -23 -40 l-15 -25 27 26 c16 15 26 33 24
40 -3 10 -6 10 -13 -1z"/>
<path d="M8051 9344 c0 -11 3 -14 6 -6 3 7 2 16 -1 19 -3 4 -6 -2 -5 -13z"/>
<path d="M8080 9279 c0 -11 4 -18 10 -14 5 3 7 12 3 20 -7 21 -13 19 -13 -6z"/>
<path d="M8110 9164 c0 -110 43 -419 61 -438 12 -13 11 5 0 96 -6 40 -15 120
-21 178 -16 153 -21 180 -31 180 -5 0 -9 -7 -9 -16z"/>
<path d="M4873 9065 c0 -22 2 -30 4 -17 2 12 2 30 0 40 -3 9 -5 -1 -4 -23z"/>
<path d="M4837 8943 c-4 -3 -6 -29 -6 -57 l1 -51 9 54 c9 54 8 67 -4 54z"/>
<path d="M8203 8555 c0 -22 2 -30 4 -17 2 12 2 30 0 40 -3 9 -5 -1 -4 -23z"/>
</g>
</svg>
